<svg version="1.1" id="Layer_1" xmlns="http://www.w3.org/2000/svg" xmlns:xlink="http://www.w3.org/1999/xlink" x="0px" y="0px"
    width="100%" viewBox="0 0 1024 1024" enable-background="new 0 0 1024 1024" xml:space="preserve">
  <path fill="ffffff" opacity="1.000000" stroke="none" 
    d="
  M570.262695,571.832886 
    C580.713745,603.316101 591.672180,634.223877 598.753174,666.321716 
    C605.028809,694.769043 607.839905,723.524780 606.108337,752.581299 
    C604.848938,773.714417 600.243774,794.155151 588.913879,812.461548 
    C569.151184,844.393372 534.162903,856.710938 498.742523,843.847229 
    C467.081421,832.348694 445.550049,809.750732 431.414978,779.778198 
    C418.482574,752.355957 417.629456,723.666443 423.137451,694.315369 
    C428.606018,665.174316 437.445190,636.880127 444.219055,608.070312 
    C452.640289,572.254150 458.778992,536.097717 461.916931,499.405579 
    C463.779907,477.621796 464.240143,455.831696 463.596680,434.028290 
    C462.810791,407.400330 458.201599,381.363892 448.303680,356.556274 
    C438.890411,332.963226 433.825195,308.645782 432.402618,283.294434 
    C430.913940,256.765015 434.546478,231.170227 443.876526,206.410416 
    C449.429901,191.673172 459.150879,181.059860 475.478973,178.219162 
    C486.231659,176.348465 496.401550,178.705505 505.985565,183.458893 
    C527.483643,194.121353 540.251465,212.055374 547.130615,234.467636 
    C553.874878,256.440125 554.113586,279.007477 552.669128,301.737030 
    C550.938416,328.970947 546.431335,355.918701 544.999023,383.200836 
    C543.887085,404.382355 544.205688,425.503845 545.476196,446.592743 
    C548.048523,489.288086 555.506348,531.102600 570.262695,571.832886 
  z"/>
  </svg>