<?xml version="1.0" standalone="no"?>
<!DOCTYPE svg PUBLIC "-//W3C//DTD SVG 20010904//EN"
 "http://www.w3.org/TR/2001/REC-SVG-20010904/DTD/svg10.dtd">
<svg version="1.0" xmlns="http://www.w3.org/2000/svg"
 width="2048.000000pt" height="2048.000000pt" viewBox="0 0 2048.000000 2048.000000"
 preserveAspectRatio="xMidYMid meet">

<g transform="translate(0.000000,2048.000000) scale(0.100000,-0.100000)"
fill="#000000" stroke="none">
<path d="M10183 17179 c-45 -13 -79 -59 -102 -137 -45 -152 -125 -531 -211
-997 -286 -1556 -592 -2655 -1245 -4470 -63 -176 -161 -440 -395 -1070 -340
-915 -479 -1315 -616 -1770 -407 -1354 -494 -2408 -274 -3320 230 -953 765
-1507 1810 -1872 358 -125 813 -215 1090 -215 277 0 732 90 1090 215 513 179
894 401 1186 692 307 305 502 674 624 1180 220 912 133 1966 -274 3320 -137
455 -276 855 -616 1770 -234 630 -332 894 -395 1070 -653 1815 -959 2914
-1245 4470 -65 356 -101 532 -156 775 -65 289 -88 339 -162 360 -43 12 -65 12
-109 -1z"/>
</g>
</svg>
