<?xml version="1.0" standalone="no"?>
<!DOCTYPE svg PUBLIC "-//W3C//DTD SVG 20010904//EN"
 "http://www.w3.org/TR/2001/REC-SVG-20010904/DTD/svg10.dtd">
<svg version="1.0" xmlns="http://www.w3.org/2000/svg"
 width="2048.000000pt" height="2048.000000pt" viewBox="0 0 2048.000000 2048.000000"
 preserveAspectRatio="xMidYMid meet">

<g transform="translate(0.000000,2048.000000) scale(0.100000,-0.100000)"
fill="#000000" stroke="none">
<path d="M10085 15340 c-399 -81 -679 -329 -804 -710 -40 -123 -51 -175 -60
-287 -16 -181 18 -392 99 -633 63 -185 184 -708 245 -1060 73 -425 113 -942
136 -1785 25 -935 -54 -1718 -257 -2530 -91 -363 -164 -595 -336 -1065 -384
-1045 -488 -1456 -488 -1926 0 -310 72 -661 191 -938 75 -173 253 -451 385
-601 78 -89 250 -240 352 -308 213 -143 488 -237 692 -237 204 0 479 94 692
237 102 68 274 219 352 308 78 89 206 270 281 400 188 323 295 738 295 1139 0
470 -104 881 -488 1926 -172 470 -245 702 -336 1065 -203 812 -282 1595 -257
2530 23 843 63 1360 136 1785 61 352 182 875 245 1060 100 297 128 559 80 775
-101 466 -402 768 -853 856 -119 23 -184 23 -302 -1z m-1238 -10302 c-3 -8 -6
-5 -6 6 -1 11 2 17 5 13 3 -3 4 -12 1 -19z m2790 0 c-3 -8 -6 -5 -6 6 -1 11 2
17 5 13 3 -3 4 -12 1 -19z"/>
</g>
</svg>
