<?xml version="1.0" standalone="no"?>
<!DOCTYPE svg PUBLIC "-//W3C//DTD SVG 20010904//EN"
 "http://www.w3.org/TR/2001/REC-SVG-20010904/DTD/svg10.dtd">
<svg version="1.0" xmlns="http://www.w3.org/2000/svg"
 width="2048.000000pt" height="2048.000000pt" viewBox="0 0 2048.000000 2048.000000"
 preserveAspectRatio="xMidYMid meet">

<g transform="translate(0.000000,2048.000000) scale(0.100000,-0.100000)"
fill="#000000" stroke="none">
<path d="M10235 18643 c-188 -23 -303 -61 -410 -137 -232 -166 -345 -475 -375
-1025 -16 -307 0 -525 90 -1171 127 -914 158 -1256 167 -1825 9 -623 -33
-1060 -157 -1620 -102 -456 -198 -771 -598 -1955 -435 -1285 -611 -2026 -683
-2880 -17 -190 -17 -719 -1 -885 58 -594 200 -1010 463 -1352 146 -190 286
-321 517 -486 354 -253 644 -357 992 -357 348 0 638 104 992 357 231 165 371
296 517 486 182 237 291 474 376 820 72 293 99 556 99 967 0 482 -42 870 -150
1410 -119 595 -278 1140 -636 2188 -55 161 -98 296 -95 298 2 3 40 -11 83 -30
101 -44 208 -79 315 -102 119 -26 419 -27 539 -1 406 87 700 325 786 637 29
102 24 306 -9 432 -70 264 -157 426 -560 1035 -238 359 -354 552 -471 783
-195 384 -312 720 -381 1094 -49 266 -56 380 -65 961 -8 559 -14 640 -56 850
-56 283 -172 629 -276 825 -145 275 -320 480 -499 584 -142 82 -341 121 -514
99z"/>
</g>
</svg>
